<?xml version="1.0" encoding="utf-8"?>
<!-- Generator: Adobe Illustrator 18.0.0, SVG Export Plug-In . SVG Version: 6.00 Build 0)  -->
<!DOCTYPE svg PUBLIC "-//W3C//DTD SVG 1.1//EN" "http://www.w3.org/Graphics/SVG/1.1/DTD/svg11.dtd">
<svg version="1.1" id="Capa_1" xmlns="http://www.w3.org/2000/svg" xmlns:xlink="http://www.w3.org/1999/xlink" x="0px" y="0px"
	 viewBox="0 0 786.1 745.3" enable-background="new 0 0 786.1 745.3" xml:space="preserve">
<g>
	<path fill-rule="evenodd" clip-rule="evenodd" fill="#FFFFFF" d="M734,598c0-2.5-41.1-145.1-74.8-160.1
		c-33.7-15-104.7-48.8-129.6-45c0,0-33.7,6.2-64.8,0c0,0-78.5,15-104.7,25c-26.2,10-209.4,0-209.4,0l15-5c0,0,23.7-206.4,19.9-210.1
		c-3.7-3.8-79.8-16.2-84.8-15c-5,1.2-17.5,103.8-19.9,115.1s1.6,37.4-5,70c-4,19.8-39.9,113.8,44.9,125.1
		c84.8,11.2,204.4,20,204.4,20l5-30l5,105.1"/>
	
		<path fill-rule="evenodd" clip-rule="evenodd" fill="#FDE4D8" stroke="#2B0704" stroke-width="4" stroke-linecap="round" stroke-linejoin="round" stroke-miterlimit="10" d="
		M404.3,214.7c2.4,4.6,7.1,11.5,8.3,19.5c1.2,4.6,2.4,11.5,3.6,17.2c0,2.3,4.7,6.9,4.7,10.4c0,4.6-2.4,8-7.1,8
		c-2.4,0-3.5-2.3-5.9-3.5c1.2-20.7-9.5-43.7-16.6-64.3c-2.4,0-4.7,3.4-8.3,4.6v-8c0-5.8,4.7-6.9,8.3-6.9
		C400.8,191.7,400.8,207.8,404.3,214.7z"/>
	
		<path fill-rule="evenodd" clip-rule="evenodd" fill="#FDE4D8" stroke="#2B0704" stroke-width="4" stroke-linecap="round" stroke-linejoin="round" stroke-miterlimit="10" d="
		M604.4,195.8c0,3.4-1.2,4.6-3.5,6.9c-2.4-1.1-2.4-3.4-3.5-5.8c-7.1,5.8-13,33.3-13,37.9c0,3.4-3.5,18.4-7.1,28.7h-7.1V251
		c2.4-4.6,3.5-12.7,3.5-14.9c0-3.4,8.3-32.2,14.2-46c0-2.3,4.7-2.3,7.1-2.3C602,187.8,604.4,193.5,604.4,195.8z"/>
	<path fill-rule="evenodd" clip-rule="evenodd" fill="#FCE2D6" d="M400.8,204.1c0,0,10.2,23.3,16.5,41.3
		c6.2,18,33.9,103.3,52.5,102.5c34.9-1.4,63.8-1,63.8-1s24.4-40.6,33.4-91.6c7.2-40.6,7.5-72.4,7.5-72.4s-17.1-11.3-15-30
		c0,0-62.1,8.6-83.1-18.3c-21-27-26.6-11.7-26.6-11.7l-18.3,25l-28.2,18.4L400.8,204.1z"/>
	
		<path fill-rule="evenodd" clip-rule="evenodd" fill="none" stroke="#000000" stroke-width="4" stroke-linecap="square" stroke-linejoin="round" stroke-miterlimit="10" d="
		M444.9,257.8c0,0,44.8,42.6,94.7,5"/>
	
		<path fill-rule="evenodd" clip-rule="evenodd" fill="none" stroke="#000000" stroke-width="4" stroke-linecap="square" stroke-linejoin="round" stroke-miterlimit="10" d="
		M474.8,247.8c0,0,21.6,9.4,39.9,0"/>
	<path fill-rule="evenodd" clip-rule="evenodd" d="M464.8,207.8c0-2.8,2.2-5,5-5s5,2.2,5,5c0,2.8-2.2,5-5,5S464.8,210.6,464.8,207.8
		z"/>
	<path fill-rule="evenodd" clip-rule="evenodd" d="M514.7,207.8c0-2.8,2.2-5,5-5s5,2.2,5,5c0,2.8-2.2,5-5,5S514.7,210.6,514.7,207.8
		z"/>
	
		<path fill-rule="evenodd" clip-rule="evenodd" fill="none" stroke="#000000" stroke-width="4" stroke-linecap="square" stroke-linejoin="round" stroke-miterlimit="10" d="
		M509.7,312.8c0,0-21.7,13.1-34.9,0"/>
	
		<path fill-rule="evenodd" clip-rule="evenodd" fill="none" stroke="#2B0704" stroke-width="4" stroke-linecap="round" stroke-linejoin="round" stroke-miterlimit="10" d="
		M408.5,204.9c8.9,41.5,33.7,143.9,61.3,143c34.9-1.1,63.8-1,63.8-1s31.9-50.8,33.4-91.6c12-37,10.6-56.8,13-67"/>
	<path fill-rule="evenodd" clip-rule="evenodd" fill="#FDE2D5" d="M115.8,186.8c0,0-12.5-11.7-15-65c-2.5-53.4,0-70,0-70
		s4.2-10,10-10c5.8,0,10,10,10,10v45c0,0,8.3,16.7,10,0c1.7-16.7,0-70,0-70s4.2-16.7,15-15c10.8,1.7,10,15,10,15v60c0,0,1.7,8.3,5,5
		c3.3-3.3,5-20,5-20s5-43.4,10-55c5-11.7,14.1-11.7,19.9-5c5.8,6.7-19.9,91.7-10,85c10-6.7,29.9-60,29.9-60s4.2-10,15-10
		c10.8,0,6.7,17.5,5,25c-1.7,7.5-30.8,58.4-29.9,70c0.8,11.7,14.1-5.8,24.9-10c10.8-4.2,33.5-4.2,23.6,17.4c0,0-9.4,3.4-18.6,12.6
		S208.8,184,193,183.2s-17.4,13.6-17.4,13.6L115.8,186.8z"/>
	
		<path fill-rule="evenodd" clip-rule="evenodd" fill="none" stroke="#2A0402" stroke-width="4" stroke-linecap="round" stroke-linejoin="round" stroke-miterlimit="10" d="
		M115.8,187.8c0,0-12.5-11.7-15-65c-2.5-53.4,0-70,0-70s4.2-10,10-10c5.8,0,10,10,10,10v45c0,0,8.3,16.7,10,0c1.7-16.7,0-70,0-70
		s4.2-16.7,15-15s10,15,10,15v60c0,0,1.7,8.3,5,5c3.3-3.3,5-20,5-20s5-43.3,10-55c5-11.7,14.1-11.7,19.9-5
		c5.8,6.7-19.9,91.7-10,85.1c10-6.7,29.9-60,29.9-60s4.2-10,15-10c10.8,0,6.7,17.5,5,25c-1.7,7.5-30.8,58.4-29.9,70
		s14.1-5.8,24.9-10c10.8-4.2,34.9-6.7,24.9,15c0,0-10.8,5.8-19.9,15s-24.1,40.9-39.9,40c-15.8-0.8-19.9,15-19.9,15L115.8,187.8z"/>
	
		<path fill-rule="evenodd" clip-rule="evenodd" fill="none" stroke="#2A0402" stroke-width="4" stroke-linecap="round" stroke-linejoin="round" stroke-miterlimit="10" d="
		M150.7,147.8c0,0,16.6-18.3,34.9-20c18.3-1.7,19.9,0,19.9,0"/>
	<path fill-rule="evenodd" clip-rule="evenodd" fill="#DA2317" d="M95.8,232.8l84.8,20c0,0-10.6,56.9-10,55c0.6-1.9-84.8-20-84.8-20
		L95.8,232.8z"/>
	<path fill-rule="evenodd" clip-rule="evenodd" fill="#DA2317" d="M85.9,332.9l84.8,15c0,0-3.1,44.6-5,45c-1.9,0.5-94.7,0-94.7,0
		L85.9,332.9z"/>
	<path fill-rule="evenodd" clip-rule="evenodd" fill="#DA2317" d="M65.9,447.9l89.8-40l5,10h5c0,0-35.8,78-49.9,80.1
		C101.7,500,67.8,472.2,65.9,447.9z"/>
	<polygon fill-rule="evenodd" clip-rule="evenodd" fill="#DA2317" points="195.6,417.9 180.6,503 245.4,508 250.4,422.9 	"/>
	<path fill-rule="evenodd" clip-rule="evenodd" fill="#DA2317" d="M295.3,427.9V513l34.9,5v25l329.1-5l54.8-5l-24.9-60l-294.2,5
		c0,0-50.1-1.9-60-55.8L295.3,427.9z"/>
	<path fill-rule="evenodd" clip-rule="evenodd" fill="#DA2317" d="M380,417.9c0,0,124.4,31.1,249,8.3c0,0-58.7-30.4-79.4-33.3
		c-20.8-2.9-85-3-94.7,0C445,395.9,380,417.9,380,417.9z"/>
	<rect x="335.2" y="582.7" fill-rule="evenodd" clip-rule="evenodd" fill="#D52703" width="398.9" height="13.1"/>
	
		<path fill-rule="evenodd" clip-rule="evenodd" fill="none" stroke="#2A0402" stroke-width="11" stroke-linecap="round" stroke-linejoin="round" stroke-miterlimit="10" d="
		M734,598c0-2.5-41.1-145.1-74.8-160.1c-33.7-15-104.7-48.8-129.6-45c0,0-33.7,6.2-64.8,0c0,0-78.5,15-104.7,25
		c-26.2,10-209.4,0-209.4,0l15-5c0,0,23.7-206.4,19.9-210.1c-3.7-3.8-79.8-16.2-84.8-15c-5,1.2-17.5,103.8-19.9,115.1s1.6,37.4-5,70
		c-4,19.8-39.9,113.8,44.9,125.1c84.8,11.2,204.4,20,204.4,20l5-30l5,105.1"/>
	<path fill-rule="evenodd" clip-rule="evenodd" fill="#FBE2D4" d="M524.6,354.1v38.8c0,0-37.4,5-59.8,0v-40L524.6,354.1z"/>
	
		<path fill-rule="evenodd" clip-rule="evenodd" fill="none" stroke="#2A0402" stroke-width="4" stroke-linecap="round" stroke-linejoin="round" stroke-miterlimit="10" d="
		M527,348.2l-2.4,42.7c0,0-37.4,5-59.8,0v-43L527,348.2z"/>
	<polygon fill-rule="evenodd" clip-rule="evenodd" fill="#2F0602" points="530,346.2 524.6,372.9 469.8,349.9 	"/>
	
		<path fill-rule="evenodd" clip-rule="evenodd" fill="#954B44" stroke="#0A090A" stroke-width="4" stroke-linecap="round" stroke-linejoin="round" stroke-miterlimit="10" d="
		M559.5,152.8c1.4,0.9,1,13.5,10,20c9,6.5,8.6,55.1,8.6,55.1s5.6-39.4,7-39.7c5.5-0.9,15.5-4,14.4-5.4c-1.5-1.7,5-31.7,3.4-32.8
		S558.2,151.9,559.5,152.8z"/>
	
		<path fill-rule="evenodd" clip-rule="evenodd" fill="#954B44" stroke="#0A090A" stroke-width="4" stroke-linecap="round" stroke-linejoin="round" stroke-miterlimit="10" d="
		M380,167.8l20,30v-35l24.9,10l-5-30c0,0,27.3,20.6,24.9,20s0-40,0-40l10-5c0,0,7.2,46,64.8,40c57.7-5.9,69.6-6,89.8,5
		c20.1,11,36.9,6.9,34.9,5c-2-1.9-13.9-5.3-15-10c-1-4.7,14-8,15-10c1-2-5.2-0.7-10-5c-4.8-4.3-6.5-7.2,5-10
		c3.2-0.8,4.4-0.9,4.4-0.8c0,0.2-7.7,1.7-9.4-4.2c-2.4-8.2,5-15,5-15l-10-10l15-10c0,0-22.8-6.9-44.9-15
		c-22.1-8.1-27.1,4.5-34.8-4.8c-7.7-9.3-50,9.8-50,9.8l-139.6,80L380,167.8z"/>
	
		<path fill-rule="evenodd" clip-rule="evenodd" fill="none" stroke="#0A090A" stroke-width="4" stroke-linecap="round" stroke-linejoin="round" stroke-miterlimit="10" d="
		M634.3,162.8c-2.1,1.2-10-30.2-59.8-25c-49.9,5.2-96.1,12.1-109.7-30"/>
	
		<path fill-rule="evenodd" clip-rule="evenodd" fill="none" stroke="#0A090A" stroke-width="4" stroke-linecap="round" stroke-linejoin="round" stroke-miterlimit="10" d="
		M634.3,142.8c-2.1,1.1-10-30.2-59.8-25c-49.9,5.2-96.1,12.1-109.7-30"/>
	
		<path fill-rule="evenodd" clip-rule="evenodd" fill="none" stroke="#0A090A" stroke-width="4" stroke-linecap="round" stroke-linejoin="round" stroke-miterlimit="10" d="
		M634.3,117.7c-2.1,1.1-10-20.2-59.8-15c-49.9,5.2-96.1,2.1-109.7-40"/>
	
		<path fill-rule="evenodd" clip-rule="evenodd" fill="none" stroke="#0A090A" stroke-width="4" stroke-linecap="round" stroke-linejoin="round" stroke-miterlimit="10" d="
		M634.3,102.7c-2.1,1.1-10-20.2-59.8-15c-49.9,5.2-96.1,2.1-109.7-40"/>
	<g>
		
			<path fill-rule="evenodd" clip-rule="evenodd" fill="#DA0000" stroke="#000000" stroke-width="4" stroke-linecap="round" stroke-linejoin="round" stroke-miterlimit="10" d="
			M534.6,52.7c0,0-101.1-25.7-139.6-10s-24.9,95.1-24.9,95.1S497.5,61.1,534.6,52.7z"/>
		<path fill-rule="evenodd" clip-rule="evenodd" d="M370.1,137.8c0,0-14.2,49.2,24.9,30s38.6-48.6,114.7-70
			c76-21.5,72.9-24.2,54.8-35c-18.1-10.9-24.8-19.1-34.9-15c-9.5,3.8-82.1,45.8-104.7,55C402.3,111.9,370.1,137.8,370.1,137.8z"/>
	</g>
	<g>
		<path fill-rule="evenodd" clip-rule="evenodd" d="M580,191.9c-2,0-3.6-0.4-3.6-0.9c0-0.5,1.6-0.9,3.6-0.9s3.6,0.4,3.6,0.9
			C583.6,191.5,582,191.9,580,191.9z M573.7,209.8c-0.2,6.7-1.3,13.2-3.6,19.4c-0.9,2.5-2.2,4.9-4.2,6.8c-2.2,2.1-4.8,3.2-7.7,4
			c-3.6,1-7.2,1.2-10.9,1.2c-5.6,0.1-11-0.7-16.5-1.8c-5.4-1.2-9.7-4-13.1-8.4c-4.4-5.6-7.2-11.9-8.7-18.8c-0.7-3.2-1.3-6.4-1.2-9.7
			c0-1.4,0.2-2.8,0.4-4.2c0.6-3.5,2.7-5.8,5.9-7.1c3.2-1.3,6.5-2.1,9.9-2.8c3.7-0.8,7.5-1.3,11.3-1.6c3-0.2,5.9-0.3,8-0.4
			c8,0.4,14.9,1,21.7,3c1.2,0.4,2.4,0.9,3.6,1.5c1.1,0.5,2,1.4,2.5,2.5c0.6,1.2,1.2,2.5,1.7,3.8c0.6,1.5,0.7,3.1,0.8,4.8
			C573.6,204.7,573.7,207.3,573.7,209.8z M476.3,211.9c-1.3,5.5-3.4,10.7-6.2,15.6c-1.5,2.7-3.3,5.2-5.5,7.3
			c-2.9,2.8-6.4,4.5-10.3,5.5c-7.8,2.1-15.7,2.6-23.7,1.4c-1.6-0.2-3.1-0.7-4.7-1.1c-3.2-0.8-5.6-2.7-7.4-5.5c-2-3.1-3.3-6.4-4.1-10
			c-1.1-4.6-1.7-9.4-2.2-14.1c-0.3-2.8-0.2-5.5,0.1-8.2c0.2-1.4,0.3-2.8,0.6-4.1c1.1-4.8,4-7.9,8.7-9.1c4.3-1.1,8.6-1.8,13.1-2.2
			c3.3-0.3,6.5-0.4,8.7-0.5c7.5,0.1,13.8,0.6,20,2c2.5,0.6,5.1,1.1,7.4,2.4c1.1,0.6,2.2,1.4,3.2,2.2c1.6,1.4,2.5,3.3,2.8,5.4
			C477.7,203.3,477.3,207.6,476.3,211.9z M406,191.9c-2,0-3.6-0.4-3.6-0.9c0-0.5,1.6-0.9,3.6-0.9c2,0,3.6,0.4,3.6,0.9
			C409.6,191.5,408,191.9,406,191.9z M587.7,185.9c0-0.6-0.3-1-0.9-1.1c-0.4-0.1-0.8-0.2-1.2-0.3c-5.9-0.9-11.9-1.9-17.8-2.3
			c-4.8-0.3-9.6-0.6-14.3-0.8c-9.2-0.4-18.4-0.2-27.6,1c-5.6,0.7-11.1,1.8-16.5,3.5c-2.7,0.9-5.4,1.9-8.1,2.8c-4.2,1.4-8.6,2-13,1.1
			c-2.6-0.5-5.3-1.3-7.8-2.1c-4.7-1.5-9.3-3-14.1-3.9c-9.4-1.8-18.8-2.6-27.7-2.5c-7.2,0-13.6,0.3-20.1,1
			c-5.3,0.7-10.5,1.4-15.8,2.1c-1.1,0.2-2.2,0.5-3.3,0.8c-0.6,0.1-1,0.6-1,1.2c-0.1,3.2-0.2,6.3-0.3,9.5c0,0.5,0.1,1,0.2,1.4
			c0,0.4,0.3,0.7,0.6,0.8c0.4,0.2,0.8,0.4,1.2,0.6c1.7,1.2,2.6,3.1,3.2,5c0.5,1.4,0.8,2.8,1.2,4.2c0.2,0.9,0.6,1.7,0.8,2.6
			c0.9,4.1,1.8,8.3,2.7,12.4c0.9,3.9,2.1,7.8,3.9,11.4c2.1,4,5,7.1,9.2,8.9c2.5,1.1,5.2,1.8,7.9,2.2c4.8,0.8,9.7,0.9,14.6,0.5
			c4.9-0.4,9.8-1.1,14.6-2.6c3.5-1.1,6.9-2.6,9.7-5.1c4.3-3.7,7.8-8.2,10.5-13.3c2.7-5.1,4.6-10.5,6.2-16c0.5-1.6,0.9-3.2,1.5-4.7
			c0.8-2.3,2.4-3.7,4.8-4.1c0.8-0.1,1.6-0.2,2.3-0.1c1.8,0.1,3.5,0.5,4.7,2c0.5,0.7,1,1.4,1.3,2.2c0.7,1.5,1.3,3,1.8,4.6
			c2.1,6.8,4.9,13.3,8.4,19.4c2.9,5.1,6.8,9.2,11.9,12.1c3.6,2,7.5,3.3,11.6,4.1c6.1,1.2,12.2,1.5,18.4,1.2c3.7-0.2,7.4-0.6,11-1.7
			c3.7-1.1,6.9-2.9,9.3-6.1c1.6-2,2.7-4.3,3.7-6.6c2-5,3.3-10.2,4.5-15.4c0.6-2.6,1.2-5.1,1.8-7.7c0.3-1.3,0.7-2.6,1.1-4
			c0.3-1.2,0.6-2.5,1.4-3.6c0.8-1.1,1.6-2.1,2.9-2.6c0.6-0.2,0.8-0.6,1-1.1c0.1-0.4,0.2-0.9,0.2-1.3c0-1.9,0-3.8,0-5.7
			C587.9,188.6,587.8,187.2,587.7,185.9z"/>
	</g>
</g>
<g>
	<path d="M17.4,619.9h27l9.7,51.5l14.2-51.5h26.9l14.3,51.4l9.7-51.4H146l-20.3,91.9H97.9L81.8,654l-16.1,57.9H37.8L17.4,619.9z"/>
	<path d="M205.4,696.7h-32.3l-4.5,15.2h-29l34.6-91.9h31l34.5,91.9H210L205.4,696.7z M199.5,676.8l-10.1-33.1l-10,33.1H199.5z"/>
	<path d="M242.4,619.9h28.4v69.3h44.3v22.6h-72.8V619.9z"/>
	<path d="M321.6,619.9H350v69.3h44.3v22.6h-72.8V619.9z"/>
	<path d="M381.7,619.9h31.6l18.5,31l18.6-31h31.4l-35.7,53.4v38.5h-28.5v-38.5L381.7,619.9z"/>
	<path d="M476.3,729.1v-11.7c5,1.6,9.4,2.4,13.3,2.4c5,0,8.5-1.4,10.5-4.3c2-2.9,3-7.9,3-15V619h13.2v81.1
		c0,20.2-9.6,30.3-28.7,30.3C484.7,730.4,480.9,730,476.3,729.1z"/>
	<path d="M577.2,714.2c-12.9,0-23.2-4.5-31.1-13.4c-7.8-8.9-11.8-20.7-11.8-35.4c0-14.8,3.9-26.6,11.8-35.4
		c7.9-8.8,18.4-13.3,31.6-13.3c13.1,0,23.6,4.4,31.5,13.2c7.9,8.8,11.9,20.6,11.9,35.3c0,15-4,26.9-11.9,35.7
		C601.4,709.8,590.7,714.2,577.2,714.2z M577.4,704.3c9.5,0,16.8-3.4,22-10.3c5.2-6.8,7.8-16.5,7.8-28.9c0-12.1-2.6-21.5-7.8-28.3
		c-5.2-6.8-12.4-10.2-21.6-10.2c-9.2,0-16.5,3.4-21.6,10.3c-5.2,6.8-7.8,16.3-7.8,28.5c0,12.1,2.6,21.7,7.7,28.6
		C561.2,700.8,568.3,704.3,577.4,704.3z"/>
	<path d="M639.6,711.8V619h24.1c9.3,0,16.4,1.8,21.4,5.3c5,3.5,7.4,8.6,7.4,15.2c0,11.2-6.4,19.3-19.1,24
		c15.2,4.6,22.8,13,22.8,25.1c0,7.5-2.5,13.3-7.5,17.2c-5,4-12.3,6-21.7,6H639.6z M652.6,659.8h4.2c7,0,12.5-1.5,16.3-4.5
		c3.9-3,5.8-7.3,5.8-12.7c0-9.1-7.1-13.7-21.2-13.7h-5.1V659.8z M652.6,702h2.7c9.7,0,15.9-0.6,18.8-1.8c5.4-2.3,8.2-6.6,8.2-12.8
		c0-5.5-2.5-10.1-7.4-13.8c-4.9-3.7-11.1-5.5-18.5-5.5h-3.7V702z"/>
	<path d="M731.6,714.2c-6.2,0-14.2-1.4-23.9-4.1v-13c10.5,4.9,19,7.3,25.8,7.3c5.2,0,9.4-1.4,12.5-4.1c3.2-2.7,4.7-6.3,4.7-10.7
		c0-3.6-1-6.7-3.1-9.3c-2.1-2.5-5.9-5.4-11.4-8.5l-6.4-3.7c-7.9-4.5-13.5-8.8-16.7-12.8c-3.2-4-4.9-8.6-4.9-14
		c0-7.1,2.6-13,7.8-17.7c5.2-4.6,11.8-6.9,19.8-6.9c7.1,0,14.7,1.2,22.6,3.6v12c-9.8-3.8-17.1-5.8-21.9-5.8c-4.6,0-8.3,1.2-11.3,3.6
		c-3,2.4-4.5,5.5-4.5,9.2c0,3.1,1.1,5.8,3.3,8.2c2.2,2.4,6.1,5.2,11.9,8.5l6.6,3.8c8,4.6,13.6,8.9,16.8,12.9
		c3.2,4.1,4.8,8.9,4.8,14.6c0,8.1-3,14.5-8.9,19.4C749.4,711.7,741.5,714.2,731.6,714.2z"/>
</g>
</svg>
