<?xml version="1.0" encoding="utf-8"?>
<!-- Generator: Adobe Illustrator 18.0.0, SVG Export Plug-In . SVG Version: 6.00 Build 0)  -->
<!DOCTYPE svg PUBLIC "-//W3C//DTD SVG 1.1//EN" "http://www.w3.org/Graphics/SVG/1.1/DTD/svg11.dtd">
<svg version="1.1" id="Capa_1" xmlns="http://www.w3.org/2000/svg" xmlns:xlink="http://www.w3.org/1999/xlink" x="0px" y="0px"
	 viewBox="0 0 804.1 1023.1" enable-background="new 0 0 804.1 1023.1" xml:space="preserve">
<g>
	<path fill-rule="evenodd" clip-rule="evenodd" fill="#FFFFFF" d="M747.4,598c0-2.5-41.1-145.1-74.8-160.1
		c-33.7-15-104.7-48.8-129.6-45c0,0-33.7,6.2-64.8,0c0,0-78.5,15-104.7,25c-26.2,10-209.4,0-209.4,0l15-5c0,0,23.7-206.4,19.9-210.1
		c-3.7-3.8-79.8-16.2-84.8-15c-5,1.2-17.5,103.8-19.9,115.1s1.6,37.4-5,70c-4,19.8-39.9,113.8,44.9,125.1
		c84.8,11.2,204.4,20,204.4,20l5-30l5,105.1"/>
	
		<path fill-rule="evenodd" clip-rule="evenodd" fill="#FDE4D8" stroke="#2B0704" stroke-width="4" stroke-linecap="round" stroke-linejoin="round" stroke-miterlimit="10" d="
		M417.7,214.7c2.4,4.6,7.1,11.5,8.3,19.5c1.2,4.6,2.4,11.5,3.5,17.2c0,2.3,4.7,6.9,4.7,10.3c0,4.6-2.4,8-7.1,8
		c-2.4,0-3.5-2.3-5.9-3.5c1.2-20.7-9.5-43.7-16.6-64.3c-2.4,0-4.7,3.4-8.3,4.6v-8c0-5.8,4.7-6.9,8.3-6.9
		C414.1,191.7,414.1,207.8,417.7,214.7z"/>
	
		<path fill-rule="evenodd" clip-rule="evenodd" fill="#FDE4D8" stroke="#2B0704" stroke-width="4" stroke-linecap="round" stroke-linejoin="round" stroke-miterlimit="10" d="
		M617.7,195.8c0,3.4-1.2,4.6-3.5,6.9c-2.4-1.1-2.4-3.4-3.5-5.8c-7.1,5.8-13,33.3-13,37.9c0,3.4-3.5,18.4-7.1,28.7h-7.1V251
		c2.4-4.6,3.5-12.7,3.5-14.9c0-3.4,8.3-32.2,14.2-46c0-2.3,4.7-2.3,7.1-2.3C615.4,187.8,617.7,193.5,617.7,195.8z"/>
	<path fill-rule="evenodd" clip-rule="evenodd" fill="#FCE2D6" d="M414.1,204.1c0,0,10.2,23.3,16.5,41.3s33.9,103.3,52.5,102.5
		c34.9-1.4,63.8-1.1,63.8-1.1s24.4-40.6,33.4-91.6c7.2-40.6,7.5-72.4,7.5-72.4s-17.1-11.3-15-30c0,0-62.1,8.6-83.1-18.3
		c-21-27-26.6-11.7-26.6-11.7l-18.3,25l-28.2,18.4L414.1,204.1z"/>
	
		<path fill-rule="evenodd" clip-rule="evenodd" fill="none" stroke="#000000" stroke-width="4" stroke-linecap="square" stroke-linejoin="round" stroke-miterlimit="10" d="
		M458.2,257.8c0,0,44.8,42.6,94.7,5"/>
	
		<path fill-rule="evenodd" clip-rule="evenodd" fill="none" stroke="#000000" stroke-width="4" stroke-linecap="square" stroke-linejoin="round" stroke-miterlimit="10" d="
		M488.1,247.8c0,0,21.6,9.4,39.9,0"/>
	<path fill-rule="evenodd" clip-rule="evenodd" d="M478.1,207.8c0-2.8,2.2-5,5-5s5,2.2,5,5c0,2.8-2.2,5-5,5S478.1,210.6,478.1,207.8
		z"/>
	<path fill-rule="evenodd" clip-rule="evenodd" d="M528,207.8c0-2.8,2.2-5,5-5s5,2.2,5,5c0,2.8-2.2,5-5,5S528,210.6,528,207.8z"/>
	
		<path fill-rule="evenodd" clip-rule="evenodd" fill="none" stroke="#000000" stroke-width="4" stroke-linecap="square" stroke-linejoin="round" stroke-miterlimit="10" d="
		M523,312.8c0,0-21.7,13.1-34.9,0"/>
	
		<path fill-rule="evenodd" clip-rule="evenodd" fill="none" stroke="#2B0704" stroke-width="4" stroke-linecap="round" stroke-linejoin="round" stroke-miterlimit="10" d="
		M421.8,204.9c8.9,41.5,33.7,143.9,61.3,143c34.9-1.2,63.8-1.1,63.8-1.1s31.9-50.8,33.4-91.6c12-37,10.5-56.8,13-67"/>
	<path fill-rule="evenodd" clip-rule="evenodd" fill="#FDE2D5" d="M129.1,186.8c0,0-12.5-11.7-15-65c-2.5-53.4,0-70,0-70
		s4.2-10,10-10c5.8,0,10,10,10,10v45c0,0,8.3,16.7,10,0c1.7-16.7,0-70,0-70s4.2-16.7,15-15c10.8,1.7,10,15,10,15v60c0,0,1.7,8.3,5,5
		c3.3-3.3,5-20,5-20s5-43.4,10-55c5-11.7,14.1-11.7,19.9-5c5.8,6.7-19.9,91.7-10,85c10-6.7,29.9-60,29.9-60s4.2-10,15-10
		c10.8,0,6.7,17.5,5,25c-1.7,7.5-30.8,58.4-29.9,70c0.8,11.7,14.1-5.8,24.9-10c10.8-4.2,33.5-4.2,23.6,17.4c0,0-9.4,3.4-18.6,12.6
		s-26.6,42.2-42.4,41.4s-17.4,13.6-17.4,13.6L129.1,186.8z"/>
	
		<path fill-rule="evenodd" clip-rule="evenodd" fill="none" stroke="#2A0402" stroke-width="4" stroke-linecap="round" stroke-linejoin="round" stroke-miterlimit="10" d="
		M129.1,187.8c0,0-12.5-11.7-15-65c-2.5-53.4,0-70,0-70s4.2-10,10-10c5.8,0,10,10,10,10v45c0,0,8.3,16.7,10,0c1.7-16.7,0-70,0-70
		s4.2-16.7,15-15s10,15,10,15v60c0,0,1.7,8.3,5,5c3.3-3.3,5-20,5-20s5-43.3,10-55c5-11.7,14.1-11.7,19.9-5
		c5.8,6.7-19.9,91.7-10,85.1c10-6.7,29.9-60,29.9-60s4.2-10,15-10c10.8,0,6.7,17.5,5,25c-1.7,7.5-30.8,58.4-29.9,70
		s14.1-5.8,24.9-10c10.8-4.2,34.9-6.7,24.9,15c0,0-10.8,5.8-19.9,15s-24.1,40.9-39.9,40c-15.8-0.8-19.9,15-19.9,15L129.1,187.8z"/>
	
		<path fill-rule="evenodd" clip-rule="evenodd" fill="none" stroke="#2A0402" stroke-width="4" stroke-linecap="round" stroke-linejoin="round" stroke-miterlimit="10" d="
		M164,147.8c0,0,16.6-18.3,34.9-20c18.3-1.7,19.9,0,19.9,0"/>
	<path fill-rule="evenodd" clip-rule="evenodd" fill="#DA2317" d="M109.2,232.8l84.8,20c0,0-10.6,56.9-10,55
		c0.6-1.9-84.8-20-84.8-20L109.2,232.8z"/>
	<path fill-rule="evenodd" clip-rule="evenodd" fill="#DA2317" d="M99.2,332.9l84.8,15c0,0-3.1,44.6-5,45c-1.9,0.5-94.7,0-94.7,0
		L99.2,332.9z"/>
	<path fill-rule="evenodd" clip-rule="evenodd" fill="#DA2317" d="M79.2,447.9l89.8-40l5,10h5c0,0-35.8,78-49.9,80.1
		C115.1,500,81.1,472.2,79.2,447.9z"/>
	<polygon fill-rule="evenodd" clip-rule="evenodd" fill="#DA2317" points="208.9,417.9 193.9,503 258.7,508 263.7,422.9 	"/>
	<path fill-rule="evenodd" clip-rule="evenodd" fill="#DA2317" d="M308.6,427.9V513l34.9,5v25l329.1-5l54.8-5l-24.9-60l-294.2,5
		c0,0-50.1-1.9-60-55.8L308.6,427.9z"/>
	<path fill-rule="evenodd" clip-rule="evenodd" fill="#DA2317" d="M393.4,417.9c0,0,124.4,31.1,249,8.3c0,0-58.7-30.4-79.5-33.3
		c-20.8-2.9-84.9-3-94.7,0C458.4,395.9,393.4,417.9,393.4,417.9z"/>
	<rect x="348.5" y="582.7" fill-rule="evenodd" clip-rule="evenodd" fill="#D52703" width="398.9" height="13.1"/>
	
		<path fill-rule="evenodd" clip-rule="evenodd" fill="none" stroke="#2A0402" stroke-width="11" stroke-linecap="round" stroke-linejoin="round" stroke-miterlimit="10" d="
		M747.4,598c0-2.5-41.1-145.1-74.8-160.1c-33.7-15-104.7-48.8-129.6-45c0,0-33.7,6.2-64.8,0c0,0-78.5,15-104.7,25
		c-26.2,10-209.4,0-209.4,0l15-5c0,0,23.7-206.4,19.9-210.1c-3.7-3.8-79.8-16.2-84.8-15c-5,1.2-17.5,103.8-19.9,115.1s1.6,37.4-5,70
		c-4,19.8-39.9,113.8,44.9,125.1c84.8,11.2,204.4,20,204.4,20l5-30l5,105.1"/>
	<path fill-rule="evenodd" clip-rule="evenodd" fill="#FBE2D4" d="M538,354.1v38.8c0,0-37.4,5-59.8,0v-40L538,354.1z"/>
	
		<path fill-rule="evenodd" clip-rule="evenodd" fill="none" stroke="#2A0402" stroke-width="4" stroke-linecap="round" stroke-linejoin="round" stroke-miterlimit="10" d="
		M540.3,348.2l-2.4,42.7c0,0-37.4,5-59.8,0v-43L540.3,348.2z"/>
	<polygon fill-rule="evenodd" clip-rule="evenodd" fill="#2F0602" points="543.3,346.2 538,372.9 483.1,349.9 	"/>
	
		<path fill-rule="evenodd" clip-rule="evenodd" fill="#954B44" stroke="#0A090A" stroke-width="4" stroke-linecap="round" stroke-linejoin="round" stroke-miterlimit="10" d="
		M572.9,152.8c1.4,0.9,1,13.5,10,20s8.6,55.1,8.6,55.1s5.6-39.4,6.9-39.6c5.5-0.9,15.5-4,14.4-5.4c-1.5-1.7,5-31.7,3.4-32.8
		C614.5,148.9,571.5,151.9,572.9,152.8z"/>
	
		<path fill-rule="evenodd" clip-rule="evenodd" fill="#954B44" stroke="#0A090A" stroke-width="4" stroke-linecap="round" stroke-linejoin="round" stroke-miterlimit="10" d="
		M393.4,167.8l19.9,30v-35l24.9,10l-5-30c0,0,27.3,20.6,24.9,20c-2.3-0.6,0-40,0-40l10-5c0,0,7.2,46,64.8,40c57.7-5.9,69.6-6,89.8,5
		c20.1,11,36.9,6.9,34.9,5c-2-1.9-13.9-5.3-15-10c-1-4.7,14-8,15-10c1-2-5.2-0.7-10-5c-4.8-4.3-6.5-7.2,5-10
		c3.2-0.8,4.4-0.9,4.4-0.8c0,0.2-7.7,1.7-9.4-4.2c-2.4-8.2,5-15,5-15l-10-10l15-10c0,0-22.8-6.9-44.9-15
		c-22.1-8.1-27.1,4.5-34.8-4.8c-7.7-9.3-50,9.8-50,9.8l-139.6,80L393.4,167.8z"/>
	
		<path fill-rule="evenodd" clip-rule="evenodd" fill="none" stroke="#0A090A" stroke-width="4" stroke-linecap="round" stroke-linejoin="round" stroke-miterlimit="10" d="
		M647.7,162.8c-2.1,1.2-10-30.2-59.8-25c-49.9,5.2-96.1,12.1-109.7-30"/>
	
		<path fill-rule="evenodd" clip-rule="evenodd" fill="none" stroke="#0A090A" stroke-width="4" stroke-linecap="round" stroke-linejoin="round" stroke-miterlimit="10" d="
		M647.7,142.8c-2.1,1.1-10-30.2-59.8-25c-49.9,5.2-96.1,12.1-109.7-30"/>
	
		<path fill-rule="evenodd" clip-rule="evenodd" fill="none" stroke="#0A090A" stroke-width="4" stroke-linecap="round" stroke-linejoin="round" stroke-miterlimit="10" d="
		M647.7,117.7c-2.1,1.1-10-20.2-59.8-15c-49.9,5.2-96.1,2.1-109.7-40"/>
	
		<path fill-rule="evenodd" clip-rule="evenodd" fill="none" stroke="#0A090A" stroke-width="4" stroke-linecap="round" stroke-linejoin="round" stroke-miterlimit="10" d="
		M647.7,102.7c-2.1,1.1-10-20.2-59.8-15c-49.9,5.2-96.1,2.1-109.7-40"/>
	<g>
		
			<path fill-rule="evenodd" clip-rule="evenodd" fill="#DA0000" stroke="#000000" stroke-width="4" stroke-linecap="round" stroke-linejoin="round" stroke-miterlimit="10" d="
			M547.9,52.7c0,0-101.1-25.7-139.6-10s-24.9,95.1-24.9,95.1S510.9,61.1,547.9,52.7z"/>
		<path fill-rule="evenodd" clip-rule="evenodd" d="M383.4,137.8c0,0-14.2,49.2,24.9,30s38.6-48.6,114.7-70
			c76-21.5,72.9-24.2,54.8-35c-18.1-10.9-24.8-19.1-34.9-15c-9.5,3.8-82.1,45.8-104.7,55C415.7,111.9,383.4,137.8,383.4,137.8z"/>
	</g>
	<g>
		<path fill-rule="evenodd" clip-rule="evenodd" d="M593.3,191.9c-2,0-3.6-0.4-3.6-0.9c0-0.5,1.6-0.9,3.6-0.9s3.6,0.4,3.6,0.9
			C596.9,191.5,595.3,191.9,593.3,191.9z M587,209.8c-0.2,6.7-1.3,13.2-3.6,19.4c-0.9,2.5-2.2,4.9-4.1,6.8c-2.2,2.1-4.8,3.2-7.7,4
			c-3.6,1-7.2,1.2-10.9,1.2c-5.6,0.1-11-0.6-16.5-1.8c-5.4-1.2-9.7-4-13.1-8.4c-4.4-5.6-7.2-11.9-8.8-18.8c-0.7-3.2-1.3-6.4-1.2-9.7
			c0-1.4,0.2-2.8,0.4-4.2c0.6-3.5,2.7-5.8,5.9-7.1c3.2-1.3,6.5-2.1,9.9-2.8c3.7-0.8,7.5-1.3,11.3-1.6c3-0.2,5.9-0.3,8-0.4
			c8,0.4,14.9,1,21.7,3c1.2,0.4,2.4,0.9,3.6,1.5c1.1,0.5,2,1.4,2.5,2.5c0.6,1.2,1.2,2.5,1.7,3.8c0.6,1.5,0.7,3.1,0.8,4.8
			C586.9,204.7,587.1,207.3,587,209.8z M489.7,211.9c-1.3,5.5-3.4,10.7-6.2,15.6c-1.5,2.7-3.3,5.2-5.5,7.3
			c-2.9,2.8-6.4,4.5-10.3,5.5c-7.8,2.1-15.7,2.6-23.7,1.4c-1.6-0.2-3.1-0.7-4.7-1.1c-3.2-0.8-5.6-2.7-7.4-5.5c-2-3.1-3.3-6.4-4.1-10
			c-1.1-4.6-1.7-9.4-2.2-14.1c-0.3-2.8-0.2-5.5,0.1-8.2c0.2-1.4,0.3-2.8,0.6-4.1c1.1-4.8,4-7.9,8.7-9.1c4.3-1.1,8.6-1.8,13.1-2.2
			c3.3-0.3,6.5-0.4,8.7-0.5c7.5,0.1,13.8,0.6,20.1,2c2.5,0.6,5.1,1.1,7.4,2.4c1.1,0.6,2.2,1.3,3.2,2.2c1.6,1.4,2.5,3.3,2.8,5.4
			C491.1,203.3,490.6,207.6,489.7,211.9z M419.3,191.9c-2,0-3.6-0.4-3.6-0.9c0-0.5,1.6-0.9,3.6-0.9s3.6,0.4,3.6,0.9
			C422.9,191.5,421.3,191.9,419.3,191.9z M601,185.9c0-0.6-0.3-1-0.9-1.1c-0.4-0.1-0.8-0.2-1.2-0.3c-5.9-0.9-11.9-1.9-17.8-2.3
			c-4.8-0.3-9.6-0.6-14.4-0.8c-9.2-0.4-18.4-0.2-27.6,1c-5.6,0.7-11.1,1.8-16.5,3.5c-2.7,0.9-5.4,1.9-8.1,2.8c-4.2,1.4-8.6,2-13,1.1
			c-2.6-0.5-5.3-1.3-7.8-2.1c-4.7-1.5-9.3-3-14.1-3.9c-9.4-1.8-18.8-2.6-27.7-2.5c-7.2,0-13.6,0.3-20.1,1
			c-5.3,0.7-10.5,1.4-15.8,2.1c-1.1,0.2-2.2,0.5-3.3,0.8c-0.6,0.1-1,0.6-1,1.2c-0.1,3.2-0.2,6.3-0.3,9.5c0,0.5,0.1,1,0.2,1.4
			c0,0.4,0.3,0.7,0.6,0.8c0.4,0.2,0.8,0.4,1.2,0.6c1.7,1.2,2.6,3.1,3.2,5c0.5,1.4,0.8,2.8,1.2,4.2c0.2,0.9,0.6,1.7,0.8,2.6
			c0.9,4.1,1.8,8.3,2.7,12.4c0.9,3.9,2.1,7.8,3.9,11.4c2.1,4,5,7.1,9.2,8.9c2.5,1.1,5.2,1.8,7.9,2.2c4.8,0.8,9.7,0.9,14.6,0.5
			c4.9-0.4,9.8-1.1,14.6-2.6c3.5-1.1,6.9-2.6,9.7-5.1c4.3-3.7,7.8-8.2,10.5-13.3c2.7-5.1,4.5-10.5,6.2-16c0.5-1.6,0.9-3.2,1.5-4.7
			c0.8-2.3,2.4-3.7,4.8-4.1c0.8-0.1,1.5-0.2,2.3-0.1c1.8,0.1,3.5,0.5,4.7,2c0.5,0.7,1,1.4,1.3,2.2c0.7,1.5,1.3,3,1.8,4.6
			c2.1,6.8,4.9,13.3,8.4,19.4c2.9,5.1,6.8,9.2,11.9,12.1c3.6,2,7.5,3.3,11.6,4.1c6.1,1.2,12.2,1.5,18.4,1.2c3.7-0.2,7.4-0.6,11-1.7
			c3.7-1.1,6.9-2.9,9.3-6.1c1.6-2,2.7-4.3,3.7-6.6c2-5,3.3-10.2,4.5-15.4c0.6-2.6,1.2-5.1,1.8-7.7c0.3-1.3,0.7-2.6,1.1-4
			c0.3-1.2,0.6-2.5,1.4-3.6c0.8-1.1,1.6-2.1,2.9-2.6c0.6-0.2,0.8-0.6,1-1.2c0.1-0.4,0.2-0.8,0.2-1.3c0-1.9,0-3.8,0-5.7
			C601.3,188.6,601.1,187.2,601,185.9z"/>
	</g>
</g>
<g>
	<path d="M27.6,631.9h44.7l16.1,85.2l23.5-85.2h44.5L180,717l16.1-85.1h44.4L207,784.1h-46.1l-26.7-95.8l-26.6,95.8H61.5L27.6,631.9
		z"/>
	<path d="M338.9,759h-53.4l-7.4,25.1h-48l57.2-152.2h51.3l57.2,152.2h-49.3L338.9,759z M329.1,726.1l-16.8-54.7l-16.6,54.7H329.1z"
		/>
	<path d="M400.1,631.9h47v114.7h73.4v37.5H400.1V631.9z"/>
	<path d="M531.3,631.9h47v114.7h73.4v37.5H531.3V631.9z"/>
	<path d="M630.7,631.9H683l30.7,51.4l30.7-51.4h52l-59.2,88.5v63.8H690v-63.8L630.7,631.9z"/>
</g>
<g>
	<path d="M18.9,1006.4v-19.3c8.3,2.7,15.6,4,22,4c8.3,0,14.1-2.4,17.4-7.1c3.3-4.7,4.9-13,4.9-24.9v-135h21.8v134.3
		c0,33.4-15.8,50.2-47.5,50.2C32.8,1008.6,26.5,1007.8,18.9,1006.4z"/>
	<path d="M185.9,981.7c-21.3,0-38.5-7.4-51.5-22.2c-13-14.8-19.5-34.3-19.5-58.6c0-24.4,6.5-44,19.6-58.6c13-14.6,30.5-22,52.3-22
		c21.7,0,39.1,7.3,52.2,21.9c13.1,14.6,19.6,34.1,19.6,58.5c0,24.9-6.5,44.6-19.6,59.1C226,974.4,208.3,981.7,185.9,981.7z
		 M186.2,965.4c15.7,0,27.9-5.7,36.4-17c8.6-11.3,12.9-27.3,12.9-47.9c0-20-4.3-35.7-12.9-46.9c-8.6-11.3-20.5-16.9-35.8-16.9
		c-15.3,0-27.2,5.7-35.8,17c-8.6,11.3-12.9,27-12.9,47.2c0,20.1,4.3,35.9,12.8,47.4C159.4,959.6,171.2,965.4,186.2,965.4z"/>
	<path d="M289.2,977.8V824.2h39.9c15.4,0,27.2,2.9,35.4,8.7c8.2,5.8,12.3,14.2,12.3,25.1c0,18.6-10.5,31.9-31.6,39.8
		c25.1,7.7,37.7,21.6,37.7,41.6c0,12.5-4.2,22-12.5,28.6c-8.3,6.6-20.3,9.9-35.9,9.9H289.2z M310.8,891.7h7c11.6,0,20.6-2.5,27-7.5
		c6.4-5,9.6-12,9.6-21.1c0-15.1-11.7-22.6-35.1-22.6h-8.5V891.7z M310.8,961.5h4.5c16,0,26.3-1,31-3c9-3.8,13.5-10.9,13.5-21.2
		c0-9.1-4.1-16.7-12.3-22.8c-8.2-6.1-18.4-9.1-30.6-9.1h-6.1V961.5z"/>
	<path d="M441.7,981.7c-10.3,0-23.5-2.2-39.6-6.7v-21.6c17.3,8,31.5,12,42.7,12c8.6,0,15.5-2.2,20.7-6.7c5.2-4.5,7.8-10.4,7.8-17.8
		c0-6-1.7-11.1-5.1-15.4c-3.4-4.2-9.7-8.9-19-14.1l-10.6-6.1c-13.1-7.5-22.3-14.5-27.7-21.1c-5.4-6.6-8-14.3-8-23.1
		c0-11.8,4.3-21.6,12.9-29.2c8.6-7.6,19.5-11.5,32.8-11.5c11.8,0,24.3,2,37.5,5.9v19.9c-16.2-6.4-28.3-9.6-36.2-9.6
		c-7.5,0-13.8,2-18.7,6c-4.9,4-7.4,9.1-7.4,15.2c0,5.1,1.8,9.7,5.4,13.6c3.6,3.9,10.2,8.7,19.7,14.1l11,6.2
		c13.3,7.5,22.6,14.7,27.8,21.4c5.3,6.7,7.9,14.8,7.9,24.2c0,13.4-4.9,24.1-14.8,32.2C471,977.6,457.9,981.7,441.7,981.7z"/>
</g>
</svg>
