<?xml version="1.0" encoding="utf-8"?>
<!-- Generator: Adobe Illustrator 18.0.0, SVG Export Plug-In . SVG Version: 6.00 Build 0)  -->
<!DOCTYPE svg PUBLIC "-//W3C//DTD SVG 1.1//EN" "http://www.w3.org/Graphics/SVG/1.1/DTD/svg11.dtd">
<svg version="1.1" id="Capa_1" xmlns="http://www.w3.org/2000/svg" xmlns:xlink="http://www.w3.org/1999/xlink" x="0px" y="0px"
	 viewBox="0 0 2386.6 657" enable-background="new 0 0 2386.6 657" xml:space="preserve">
<g>
	<path fill-rule="evenodd" clip-rule="evenodd" fill="#FFFFFF" d="M695.8,612.1c0-2.5-41.1-145.1-74.8-160.1
		c-33.7-15-104.7-48.8-129.6-45c0,0-33.7,6.2-64.8,0c0,0-78.5,15-104.7,25c-26.2,10-209.4,0-209.4,0l15-5c0,0,23.7-206.4,19.9-210.1
		c-3.7-3.8-79.8-16.2-84.8-15c-5,1.2-17.5,103.8-19.9,115.1c-2.5,11.3,1.6,37.4-5,70c-4,19.8-39.9,113.8,44.9,125.1
		c84.8,11.2,204.4,20,204.4,20l5-30l5,105.1"/>
	
		<path fill-rule="evenodd" clip-rule="evenodd" fill="#FDE4D8" stroke="#2B0704" stroke-width="4" stroke-linecap="round" stroke-linejoin="round" stroke-miterlimit="10" d="
		M366.1,228.7c2.4,4.6,7.1,11.5,8.3,19.5c1.2,4.6,2.4,11.5,3.6,17.2c0,2.3,4.7,6.9,4.7,10.3c0,4.6-2.4,8-7.1,8
		c-2.4,0-3.5-2.3-5.9-3.4c1.2-20.7-9.5-43.7-16.6-64.4c-2.4,0-4.7,3.4-8.3,4.6v-8c0-5.8,4.7-6.9,8.3-6.9
		C362.6,205.7,362.6,221.8,366.1,228.7z"/>
	
		<path fill-rule="evenodd" clip-rule="evenodd" fill="#FDE4D8" stroke="#2B0704" stroke-width="4" stroke-linecap="round" stroke-linejoin="round" stroke-miterlimit="10" d="
		M566.2,209.9c0,3.4-1.2,4.6-3.6,6.9c-2.4-1.2-2.4-3.5-3.5-5.8c-7.1,5.8-13,33.3-13,37.9c0,3.4-3.6,18.4-7.1,28.7h-7.1v-12.6
		c2.4-4.6,3.5-12.7,3.5-14.9c0-3.5,8.3-32.2,14.2-46c0-2.3,4.7-2.3,7.1-2.3C563.8,201.9,566.2,207.6,566.2,209.9z"/>
	<path fill-rule="evenodd" clip-rule="evenodd" fill="#FCE2D6" d="M362.6,218.1c0,0,10.2,23.3,16.5,41.3
		c6.2,18,33.9,103.3,52.5,102.5c34.9-1.4,63.8-1.1,63.8-1.1s24.4-40.6,33.4-91.6c7.2-40.6,7.5-72.4,7.5-72.4s-17.1-11.3-15-30
		c0,0-62.1,8.6-83.1-18.3c-21-27-26.6-11.7-26.6-11.7l-18.3,25l-28.2,18.3L362.6,218.1z"/>
	
		<path fill-rule="evenodd" clip-rule="evenodd" fill="none" stroke="#000000" stroke-width="4" stroke-linecap="square" stroke-linejoin="round" stroke-miterlimit="10" d="
		M406.6,271.9c0,0,44.8,42.6,94.7,5"/>
	
		<path fill-rule="evenodd" clip-rule="evenodd" fill="none" stroke="#000000" stroke-width="4" stroke-linecap="square" stroke-linejoin="round" stroke-miterlimit="10" d="
		M436.6,261.9c0,0,21.6,9.4,39.9,0"/>
	<path fill-rule="evenodd" clip-rule="evenodd" d="M426.6,221.9c0-2.8,2.2-5,5-5s5,2.2,5,5c0,2.8-2.2,5-5,5S426.6,224.6,426.6,221.9
		z"/>
	<path fill-rule="evenodd" clip-rule="evenodd" d="M476.4,221.9c0-2.8,2.2-5,5-5s5,2.2,5,5c0,2.8-2.2,5-5,5S476.4,224.6,476.4,221.9
		z"/>
	
		<path fill-rule="evenodd" clip-rule="evenodd" fill="none" stroke="#000000" stroke-width="4" stroke-linecap="square" stroke-linejoin="round" stroke-miterlimit="10" d="
		M471.5,326.9c0,0-21.7,13.1-34.9,0"/>
	
		<path fill-rule="evenodd" clip-rule="evenodd" fill="none" stroke="#2B0704" stroke-width="4" stroke-linecap="round" stroke-linejoin="round" stroke-miterlimit="10" d="
		M370.2,218.9c8.9,41.5,33.7,143.9,61.3,143c34.9-1.1,63.8-1.1,63.8-1.1s31.9-50.8,33.4-91.6c12-37,10.5-56.9,13-67"/>
	<path fill-rule="evenodd" clip-rule="evenodd" fill="#FDE2D5" d="M77.6,200.8c0,0-12.5-11.7-15-65c-2.5-53.4,0-70,0-70
		s4.2-10,10-10c5.8,0,10,10,10,10v45c0,0,8.3,16.7,10,0c1.7-16.7,0-70,0-70s4.2-16.7,15-15c10.8,1.7,10,15,10,15v60c0,0,1.7,8.3,5,5
		c3.3-3.3,5-20,5-20s5-43.4,10-55c5-11.7,14.1-11.7,19.9-5c5.8,6.7-19.9,91.7-10,85c10-6.7,29.9-60,29.9-60s4.2-10,15-10
		c10.8,0,6.7,17.5,5,25c-1.7,7.5-30.8,58.4-29.9,70c0.8,11.7,14.1-5.8,24.9-10c10.8-4.2,33.5-4.2,23.6,17.4c0,0-9.4,3.4-18.6,12.6
		s-26.6,42.2-42.4,41.4s-17.4,13.6-17.4,13.6L77.6,200.8z"/>
	
		<path fill-rule="evenodd" clip-rule="evenodd" fill="none" stroke="#2A0402" stroke-width="4" stroke-linecap="round" stroke-linejoin="round" stroke-miterlimit="10" d="
		M77.6,201.9c0,0-12.5-11.7-15-65c-2.5-53.4,0-70,0-70s4.2-10,10-10c5.8,0,10,10,10,10v45c0,0,8.3,16.7,10,0c1.7-16.7,0-70,0-70
		s4.2-16.7,15-15s10,15,10,15v60c0,0,1.7,8.3,5,5c3.3-3.3,5-20,5-20s5-43.4,10-55c5-11.7,14.1-11.7,19.9-5
		c5.8,6.7-19.9,91.7-10,85.1c10-6.7,29.9-60,29.9-60s4.2-10,15-10c10.8,0,6.7,17.5,5,25c-1.7,7.5-30.8,58.4-29.9,70
		c0.8,11.7,14.1-5.8,24.9-10c10.8-4.2,34.9-6.7,24.9,15c0,0-10.8,5.8-19.9,15s-24.1,40.9-39.9,40c-15.8-0.8-19.9,15-19.9,15
		L77.6,201.9z"/>
	
		<path fill-rule="evenodd" clip-rule="evenodd" fill="none" stroke="#2A0402" stroke-width="4" stroke-linecap="round" stroke-linejoin="round" stroke-miterlimit="10" d="
		M112.5,161.8c0,0,16.6-18.3,34.9-20c18.3-1.7,19.9,0,19.9,0"/>
	<path fill-rule="evenodd" clip-rule="evenodd" fill="#DA2317" d="M57.6,246.9l84.8,20c0,0-10.6,56.9-10,55c0.6-1.9-84.8-20-84.8-20
		L57.6,246.9z"/>
	<path fill-rule="evenodd" clip-rule="evenodd" fill="#DA2317" d="M47.7,346.9l84.8,15c0,0-3.1,44.6-5,45c-1.9,0.5-94.7,0-94.7,0
		L47.7,346.9z"/>
	<path fill-rule="evenodd" clip-rule="evenodd" fill="#DA2317" d="M27.7,462l89.8-40l5,10h5c0,0-35.8,77.9-49.9,80
		C63.5,514.1,29.6,486.3,27.7,462z"/>
	<polygon fill-rule="evenodd" clip-rule="evenodd" fill="#DA2317" points="157.3,432 142.4,517 207.2,522 212.2,437 	"/>
	<path fill-rule="evenodd" clip-rule="evenodd" fill="#DA2317" d="M257.1,442V527l34.9,5v25l329.1-5l54.8-5L651,487l-294.2,5
		c0,0-50.1-1.9-60-55.8L257.1,442z"/>
	<path fill-rule="evenodd" clip-rule="evenodd" fill="#DA2317" d="M341.8,432c0,0,124.4,31.1,249,8.3c0,0-58.7-30.4-79.5-33.3
		c-20.8-2.9-84.9-3-94.7,0C406.8,409.9,341.8,432,341.8,432z"/>
	<rect x="297" y="596.8" fill-rule="evenodd" clip-rule="evenodd" fill="#D52703" width="398.9" height="13.1"/>
	
		<path fill-rule="evenodd" clip-rule="evenodd" fill="none" stroke="#2A0402" stroke-width="11" stroke-linecap="round" stroke-linejoin="round" stroke-miterlimit="10" d="
		M695.8,612.1c0-2.5-41.1-145.1-74.8-160.1c-33.7-15-104.7-48.8-129.6-45c0,0-33.7,6.2-64.8,0c0,0-78.5,15-104.7,25
		c-26.2,10-209.4,0-209.4,0l15-5c0,0,23.7-206.4,19.9-210.1c-3.7-3.8-79.8-16.2-84.8-15c-5,1.2-17.5,103.8-19.9,115.1
		c-2.5,11.3,1.6,37.4-5,70c-4,19.8-39.9,113.8,44.9,125.1c84.8,11.2,204.4,20,204.4,20l5-30l5,105.1"/>
	<path fill-rule="evenodd" clip-rule="evenodd" fill="#FBE2D4" d="M486.4,368.2V407c0,0-37.4,5-59.8,0v-40L486.4,368.2z"/>
	
		<path fill-rule="evenodd" clip-rule="evenodd" fill="none" stroke="#2A0402" stroke-width="4" stroke-linecap="round" stroke-linejoin="round" stroke-miterlimit="10" d="
		M488.8,362.2l-2.4,42.7c0,0-37.4,5-59.8,0v-43L488.8,362.2z"/>
	<polygon fill-rule="evenodd" clip-rule="evenodd" fill="#2F0602" points="491.8,360.2 486.4,387 431.6,363.9 	"/>
	
		<path fill-rule="evenodd" clip-rule="evenodd" fill="#954B44" stroke="#0A090A" stroke-width="4" stroke-linecap="round" stroke-linejoin="round" stroke-miterlimit="10" d="
		M521.3,166.8c1.4,0.9,1,13.5,10,20c9,6.5,8.6,55.1,8.6,55.1s5.6-39.4,7-39.7c5.5-0.9,15.5-4,14.4-5.4c-1.5-1.7,5-31.7,3.4-32.8
		C563,163,519.9,165.9,521.3,166.8z"/>
	
		<path fill-rule="evenodd" clip-rule="evenodd" fill="#954B44" stroke="#0A090A" stroke-width="4" stroke-linecap="round" stroke-linejoin="round" stroke-miterlimit="10" d="
		M341.8,181.8l20,30v-35l24.9,10l-5-30c0,0,27.3,20.6,24.9,20s0-40,0-40l10-5c0,0,7.2,46,64.8,40c57.6-5.9,69.6-6,89.8,5
		c20.1,11,36.9,6.9,34.9,5c-2-1.9-13.9-5.3-15-10c-1-4.7,14-8,15-10c1-2-5.2-0.7-10-5c-4.8-4.3-6.5-7.2,5-10
		c3.2-0.8,4.4-0.9,4.4-0.8c0,0.2-7.7,1.7-9.4-4.2c-2.4-8.2,5-15,5-15l-10-10l15-10c0,0-22.8-6.9-44.9-15
		c-22.1-8.1-27.1,4.5-34.8-4.8c-7.7-9.3-50,9.8-50,9.8l-139.6,80L341.8,181.8z"/>
	
		<path fill-rule="evenodd" clip-rule="evenodd" fill="none" stroke="#0A090A" stroke-width="4" stroke-linecap="round" stroke-linejoin="round" stroke-miterlimit="10" d="
		M596.1,176.8c-2.1,1.2-10-30.2-59.8-25c-49.9,5.2-96.1,12.1-109.7-30"/>
	
		<path fill-rule="evenodd" clip-rule="evenodd" fill="none" stroke="#0A090A" stroke-width="4" stroke-linecap="round" stroke-linejoin="round" stroke-miterlimit="10" d="
		M596.1,156.8c-2.1,1.1-10-30.2-59.8-25c-49.9,5.2-96.1,12.1-109.7-30"/>
	
		<path fill-rule="evenodd" clip-rule="evenodd" fill="none" stroke="#0A090A" stroke-width="4" stroke-linecap="round" stroke-linejoin="round" stroke-miterlimit="10" d="
		M596.1,131.8c-2.1,1.1-10-20.2-59.8-15s-96.1,2.1-109.7-40"/>
	
		<path fill-rule="evenodd" clip-rule="evenodd" fill="none" stroke="#0A090A" stroke-width="4" stroke-linecap="round" stroke-linejoin="round" stroke-miterlimit="10" d="
		M596.1,116.8c-2.1,1.2-10-20.2-59.8-15s-96.1,2.1-109.7-40"/>
	<g>
		
			<path fill-rule="evenodd" clip-rule="evenodd" fill="#DA0000" stroke="#000000" stroke-width="4" stroke-linecap="round" stroke-linejoin="round" stroke-miterlimit="10" d="
			M496.4,66.8c0,0-101.1-25.7-139.6-10s-24.9,95.1-24.9,95.1S459.3,75.1,496.4,66.8z"/>
		<path fill-rule="evenodd" clip-rule="evenodd" d="M331.9,151.8c0,0-14.2,49.2,24.9,30s38.6-48.6,114.7-70
			c76-21.5,72.9-24.2,54.8-35c-18.1-10.9-24.8-19.1-34.9-15c-9.5,3.8-82.1,45.8-104.7,55C364.1,126,331.9,151.8,331.9,151.8z"/>
	</g>
	<g>
		<path fill-rule="evenodd" clip-rule="evenodd" d="M541.7,205.9c-2,0-3.6-0.4-3.6-0.9c0-0.5,1.6-0.9,3.6-0.9s3.6,0.4,3.6,0.9
			C545.4,205.5,543.8,205.9,541.7,205.9z M535.5,223.9c-0.2,6.7-1.3,13.2-3.6,19.4c-0.9,2.5-2.2,4.9-4.2,6.8c-2.1,2.1-4.8,3.2-7.7,4
			c-3.6,1-7.2,1.2-10.9,1.2c-5.6,0-11-0.7-16.5-1.8c-5.4-1.2-9.7-4-13.1-8.4c-4.4-5.6-7.2-11.9-8.8-18.8c-0.7-3.2-1.3-6.4-1.2-9.7
			c0-1.4,0.2-2.8,0.4-4.2c0.6-3.5,2.7-5.8,5.9-7.1c3.2-1.3,6.5-2.1,9.9-2.8c3.7-0.8,7.5-1.3,11.3-1.6c3-0.2,5.9-0.3,7.9-0.4
			c8,0.4,14.9,1,21.7,3c1.2,0.4,2.4,0.9,3.6,1.5c1.1,0.5,2,1.4,2.5,2.5c0.6,1.2,1.2,2.5,1.7,3.8c0.6,1.5,0.7,3.1,0.8,4.8
			C535.4,218.8,535.5,221.3,535.5,223.9z M438.1,225.9c-1.3,5.5-3.4,10.7-6.2,15.6c-1.5,2.7-3.3,5.2-5.5,7.3
			c-2.9,2.8-6.4,4.5-10.3,5.5c-7.8,2.1-15.7,2.6-23.7,1.4c-1.6-0.2-3.1-0.7-4.7-1.1c-3.2-0.8-5.6-2.7-7.4-5.5c-2-3.1-3.3-6.4-4.1-10
			c-1.1-4.7-1.7-9.4-2.2-14.1c-0.3-2.8-0.2-5.5,0.1-8.2c0.2-1.4,0.3-2.8,0.6-4.1c1.1-4.8,4-7.9,8.7-9.1c4.3-1.1,8.6-1.8,13.1-2.2
			c3.3-0.3,6.5-0.4,8.7-0.5c7.5,0.1,13.8,0.6,20,2c2.5,0.6,5.1,1.1,7.4,2.4c1.1,0.6,2.2,1.4,3.2,2.2c1.6,1.4,2.5,3.3,2.8,5.4
			C439.5,217.3,439.1,221.7,438.1,225.9z M367.8,205.9c-2,0-3.6-0.4-3.6-0.9c0-0.5,1.6-0.9,3.6-0.9c2,0,3.6,0.4,3.6,0.9
			C371.4,205.5,369.8,205.9,367.8,205.9z M549.5,199.9c0-0.6-0.3-1-0.9-1.1c-0.4-0.1-0.8-0.2-1.2-0.3c-5.9-0.9-11.8-1.9-17.8-2.3
			c-4.8-0.3-9.6-0.6-14.4-0.8c-9.2-0.4-18.4-0.2-27.6,1c-5.6,0.7-11.1,1.8-16.5,3.5c-2.7,0.9-5.4,1.9-8.1,2.8c-4.2,1.4-8.6,2-13,1.1
			c-2.6-0.5-5.3-1.3-7.8-2.1c-4.7-1.5-9.3-3-14.1-3.9c-9.4-1.8-18.8-2.6-27.7-2.5c-7.2,0-13.6,0.3-20.1,1
			c-5.3,0.6-10.5,1.4-15.8,2.1c-1.1,0.2-2.2,0.5-3.3,0.8c-0.6,0.1-1,0.5-1,1.2c-0.1,3.2-0.2,6.3-0.3,9.5c0,0.5,0.1,1,0.2,1.4
			c0,0.4,0.3,0.7,0.6,0.8c0.4,0.2,0.8,0.4,1.2,0.6c1.7,1.2,2.6,3.1,3.2,5c0.5,1.4,0.8,2.8,1.2,4.2c0.2,0.9,0.6,1.7,0.8,2.6
			c0.9,4.1,1.8,8.3,2.7,12.4c0.9,3.9,2.1,7.8,3.9,11.4c2.1,4,5,7.1,9.2,8.9c2.5,1.1,5.2,1.8,7.9,2.2c4.8,0.8,9.7,0.9,14.6,0.5
			c4.9-0.4,9.8-1.1,14.6-2.6c3.5-1.1,6.9-2.6,9.7-5c4.3-3.7,7.8-8.2,10.5-13.3c2.7-5.1,4.6-10.5,6.2-16c0.5-1.6,0.9-3.2,1.5-4.7
			c0.8-2.3,2.4-3.7,4.8-4.1c0.8-0.1,1.6-0.1,2.3-0.1c1.8,0.1,3.5,0.5,4.7,2c0.5,0.7,1,1.4,1.3,2.2c0.7,1.5,1.3,3.1,1.8,4.6
			c2.1,6.8,4.9,13.3,8.4,19.4c2.9,5.1,6.8,9.2,11.9,12.1c3.6,2,7.5,3.3,11.6,4.1c6.1,1.2,12.2,1.5,18.4,1.2c3.7-0.2,7.4-0.6,11-1.7
			c3.7-1.1,6.9-2.9,9.3-6.1c1.6-2,2.7-4.3,3.7-6.6c2-5,3.3-10.2,4.5-15.4c0.6-2.6,1.2-5.1,1.8-7.7c0.3-1.3,0.7-2.6,1.1-4
			c0.3-1.2,0.6-2.5,1.4-3.6c0.8-1.1,1.6-2.1,2.9-2.6c0.6-0.2,0.8-0.6,1-1.1c0.1-0.4,0.2-0.9,0.2-1.3c0-1.9,0-3.8,0-5.7
			C549.7,202.7,549.6,201.3,549.5,199.9z"/>
	</g>
</g>
<g>
	<path d="M719.1,393h59.7l21.5,113.8L831.7,393h59.4l31.5,113.6L944.1,393h59.3l-44.8,203.3h-61.6l-35.7-128l-35.5,128h-61.6
		L719.1,393z"/>
	<path d="M1134.7,562.7h-71.3l-9.9,33.6h-64.1l76.4-203.3h68.5l76.4,203.3h-65.8L1134.7,562.7z M1121.7,518.7l-22.4-73.1l-22.2,73.1
		H1121.7z"/>
	<path d="M1216.5,393h62.8v153.2h98v50.1h-160.8V393z"/>
	<path d="M1391.7,393h62.8v153.2h98v50.1h-160.8V393z"/>
	<path d="M1524.4,393h69.8l41,68.6l41-68.6h69.4l-79,118.1v85.1h-62.9v-85.1L1524.4,393z"/>
	<path d="M1733.7,634.4v-25.8c11.1,3.6,20.9,5.4,29.4,5.4c11.1,0,18.8-3.2,23.2-9.5c4.4-6.3,6.6-17.4,6.6-33.2V391h29.1v179.3
		c0,44.6-21.1,67-63.4,67C1752.2,637.3,1743.9,636.3,1733.7,634.4z"/>
	<path d="M1956.7,601.4c-28.5,0-51.4-9.9-68.7-29.6c-17.3-19.7-26-45.8-26-78.3c0-32.6,8.7-58.7,26.1-78.3
		c17.4-19.5,40.7-29.3,69.8-29.3c29,0,52.3,9.8,69.7,29.3c17.5,19.5,26.2,45.5,26.2,78.1c0,33.2-8.7,59.5-26.2,79
		C2010.2,591.7,1986.5,601.4,1956.7,601.4z M1957.1,579.6c21,0,37.2-7.6,48.7-22.7c11.5-15.1,17.2-36.4,17.2-64
		c0-26.7-5.8-47.6-17.3-62.7c-11.5-15.1-27.4-22.6-47.8-22.6c-20.4,0-36.4,7.6-47.8,22.7c-11.5,15.1-17.2,36.1-17.2,63
		c0,26.8,5.7,47.9,17.1,63.2C1921.3,571.9,1937,579.6,1957.1,579.6z"/>
	<path d="M2094.6,596.2V391h53.2c20.5,0,36.3,3.9,47.2,11.6s16.4,19,16.4,33.6c0,24.9-14.1,42.6-42.2,53.1
		c33.6,10.3,50.3,28.8,50.3,55.6c0,16.6-5.5,29.3-16.6,38.1c-11.1,8.8-27.1,13.2-48,13.2H2094.6z M2123.5,481.2h9.3
		c15.5,0,27.6-3.3,36.1-10c8.5-6.7,12.8-16,12.8-28.1c0-20.2-15.6-30.2-46.9-30.2h-11.4V481.2z M2123.5,574.5h6
		c21.4,0,35.2-1.3,41.5-4c12-5.1,18-14.5,18-28.3c0-12.2-5.5-22.3-16.4-30.4c-10.9-8.1-24.5-12.1-40.9-12.1h-8.2V574.5z"/>
	<path d="M2298.2,601.4c-13.8,0-31.4-3-52.8-9v-28.8c23.1,10.7,42.1,16.1,57,16.1c11.5,0,20.7-3,27.7-9c7-6,10.5-13.9,10.5-23.7
		c0-8-2.3-14.9-6.9-20.5c-4.6-5.6-13-11.9-25.3-18.9l-14.1-8.2c-17.5-10-29.8-19.4-37-28.2c-7.2-8.8-10.7-19.1-10.7-30.9
		c0-15.8,5.7-28.8,17.2-39c11.5-10.2,26.1-15.3,43.8-15.3c15.8,0,32.5,2.6,50.1,7.9v26.6c-21.6-8.5-37.8-12.8-48.4-12.8
		c-10.1,0-18.4,2.7-25,8c-6.6,5.4-9.8,12.1-9.8,20.2c0,6.8,2.4,12.9,7.2,18.2c4.8,5.3,13.6,11.6,26.3,18.9l14.7,8.3
		c17.7,10.1,30.1,19.6,37.2,28.6c7,9,10.5,19.7,10.5,32.3c0,17.8-6.6,32.2-19.8,43C2337.3,596,2319.9,601.4,2298.2,601.4z"/>
</g>
</svg>
