<?xml version="1.0" encoding="utf-8"?>
<!-- Generator: Adobe Illustrator 18.0.0, SVG Export Plug-In . SVG Version: 6.00 Build 0)  -->
<!DOCTYPE svg PUBLIC "-//W3C//DTD SVG 1.1//EN" "http://www.w3.org/Graphics/SVG/1.1/DTD/svg11.dtd">
<svg version="1.1" id="Capa_1" xmlns="http://www.w3.org/2000/svg" xmlns:xlink="http://www.w3.org/1999/xlink" x="0px" y="0px"
	 viewBox="0 0 695 607" enable-background="new 0 0 695 607" xml:space="preserve">
<g>
	<path fill-rule="evenodd" clip-rule="evenodd" fill="#FFFFFF" d="M680,595.3c0-2.5-41.1-145.1-74.8-160.1
		c-33.7-15-104.7-48.8-129.6-45c0,0-33.6,6.2-64.8,0c0,0-78.5,15-104.7,25c-26.2,10-209.4,0-209.4,0l15-5c0,0,23.7-206.4,20-210.1
		c-3.7-3.8-79.8-16.2-84.8-15c-5,1.2-17.4,103.8-19.9,115.1c-2.5,11.3,1.6,37.4-5,70C17.9,390-18,484,66.8,495.3
		c84.8,11.2,204.4,20,204.4,20l5-30l5,105.1"/>
	
		<path fill-rule="evenodd" clip-rule="evenodd" fill="#FDE4D8" stroke="#2B0704" stroke-width="4" stroke-linecap="round" stroke-linejoin="round" stroke-miterlimit="10" d="
		M350.3,212c2.4,4.6,7.1,11.5,8.3,19.5c1.2,4.6,2.4,11.5,3.6,17.2c0,2.3,4.7,6.9,4.7,10.3c0,4.6-2.4,8-7.1,8c-2.4,0-3.6-2.3-5.9-3.4
		c1.2-20.7-9.5-43.7-16.6-64.4c-2.4,0-4.7,3.4-8.3,4.6v-8c0-5.8,4.7-6.9,8.3-6.9C346.8,189,346.8,205.1,350.3,212z"/>
	
		<path fill-rule="evenodd" clip-rule="evenodd" fill="#FDE4D8" stroke="#2B0704" stroke-width="4" stroke-linecap="round" stroke-linejoin="round" stroke-miterlimit="10" d="
		M550.4,193.1c0,3.5-1.2,4.6-3.5,6.9c-2.4-1.2-2.4-3.4-3.6-5.8c-7.1,5.8-13,33.3-13,37.9c0,3.4-3.6,18.4-7.1,28.7h-7.1v-12.6
		c2.4-4.6,3.5-12.7,3.5-14.9c0-3.5,8.3-32.2,14.2-46c0-2.3,4.7-2.3,7.1-2.3C548,185.1,550.4,190.9,550.4,193.1z"/>
	<path fill-rule="evenodd" clip-rule="evenodd" fill="#FCE2D6" d="M346.8,201.4c0,0,10.2,23.3,16.5,41.3
		c6.2,18,33.9,103.3,52.5,102.5c34.9-1.4,63.8-1,63.8-1s24.4-40.6,33.4-91.6c7.2-40.6,7.5-72.4,7.5-72.4s-17.1-11.3-15-30
		c0,0-62.1,8.6-83.1-18.3c-21-27-26.6-11.7-26.6-11.7l-18.3,25l-28.2,18.3L346.8,201.4z"/>
	
		<path fill-rule="evenodd" clip-rule="evenodd" fill="none" stroke="#000000" stroke-width="4" stroke-linecap="square" stroke-linejoin="round" stroke-miterlimit="10" d="
		M390.8,255.1c0,0,44.8,42.6,94.7,5"/>
	
		<path fill-rule="evenodd" clip-rule="evenodd" fill="none" stroke="#000000" stroke-width="4" stroke-linecap="square" stroke-linejoin="round" stroke-miterlimit="10" d="
		M420.8,245.1c0,0,21.6,9.4,39.9,0"/>
	<path fill-rule="evenodd" clip-rule="evenodd" d="M410.8,205.1c0-2.8,2.2-5,5-5s5,2.2,5,5c0,2.8-2.2,5-5,5S410.8,207.9,410.8,205.1
		z"/>
	<path fill-rule="evenodd" clip-rule="evenodd" d="M460.6,205.1c0-2.8,2.2-5,5-5s5,2.2,5,5c0,2.8-2.2,5-5,5S460.6,207.9,460.6,205.1
		z"/>
	
		<path fill-rule="evenodd" clip-rule="evenodd" fill="none" stroke="#000000" stroke-width="4" stroke-linecap="square" stroke-linejoin="round" stroke-miterlimit="10" d="
		M455.7,310.2c0,0-21.7,13.1-34.9,0"/>
	
		<path fill-rule="evenodd" clip-rule="evenodd" fill="none" stroke="#2B0704" stroke-width="4" stroke-linecap="round" stroke-linejoin="round" stroke-miterlimit="10" d="
		M354.4,202.2c8.9,41.5,33.7,143.9,61.3,143c34.9-1.1,63.8-1,63.8-1s31.9-50.8,33.4-91.6c12-37,10.5-56.9,13-67"/>
	<path fill-rule="evenodd" clip-rule="evenodd" fill="#FDE2D5" d="M61.8,184.1c0,0-12.5-11.7-15-65c-2.5-53.4,0-70,0-70
		s4.2-10,10-10c5.8,0,10,10,10,10v45c0,0,8.3,16.7,10,0c1.7-16.7,0-70,0-70s4.2-16.7,15-15c10.8,1.7,10,15,10,15v60c0,0,1.7,8.3,5,5
		c3.3-3.3,5-20,5-20s5-43.4,10-55c5-11.7,14.1-11.7,19.9-5c5.8,6.7-19.9,91.7-10,85c10-6.7,29.9-60,29.9-60s4.2-10,15-10
		s6.6,17.5,5,25c-1.7,7.5-30.8,58.4-29.9,70c0.8,11.7,14.1-5.8,24.9-10c10.8-4.2,33.5-4.2,23.6,17.4c0,0-9.4,3.4-18.6,12.6
		c-9.1,9.2-26.6,42.2-42.4,41.4s-17.4,13.6-17.4,13.6L61.8,184.1z"/>
	
		<path fill-rule="evenodd" clip-rule="evenodd" fill="none" stroke="#2A0402" stroke-width="4" stroke-linecap="round" stroke-linejoin="round" stroke-miterlimit="10" d="
		M61.8,185.1c0,0-12.5-11.7-15-65c-2.5-53.4,0-70,0-70s4.2-10,10-10c5.8,0,10,10,10,10v45c0,0,8.3,16.7,10,0c1.7-16.7,0-70,0-70
		s4.2-16.7,15-15s10,15,10,15v60c0,0,1.7,8.3,5,5c3.3-3.3,5-20,5-20s5-43.3,10-55c5-11.7,14.1-11.7,19.9-5c5.8,6.7-19.9,91.7-10,85
		c10-6.7,29.9-60,29.9-60s4.2-10,15-10s6.6,17.5,5,25c-1.7,7.5-30.8,58.4-29.9,70s14.1-5.8,24.9-10c10.8-4.2,34.9-6.7,24.9,15
		c0,0-10.8,5.8-19.9,15c-9.1,9.2-24.1,40.9-39.9,40c-15.8-0.8-19.9,15-19.9,15L61.8,185.1z"/>
	
		<path fill-rule="evenodd" clip-rule="evenodd" fill="none" stroke="#2A0402" stroke-width="4" stroke-linecap="round" stroke-linejoin="round" stroke-miterlimit="10" d="
		M96.7,145.1c0,0,16.6-18.3,34.9-20c18.3-1.7,19.9,0,19.9,0"/>
	<path fill-rule="evenodd" clip-rule="evenodd" fill="#DA2317" d="M41.8,230.1l84.8,20c0,0-10.6,56.9-10,55c0.6-1.9-84.8-20-84.8-20
		L41.8,230.1z"/>
	<path fill-rule="evenodd" clip-rule="evenodd" fill="#DA2317" d="M31.9,330.2l84.8,15c0,0-3.1,44.6-5,45s-94.7,0-94.7,0L31.9,330.2
		z"/>
	<path fill-rule="evenodd" clip-rule="evenodd" fill="#DA2317" d="M11.9,445.2l89.8-40l5,10h5c0,0-35.8,77.9-49.9,80
		S13.8,469.6,11.9,445.2z"/>
	<polygon fill-rule="evenodd" clip-rule="evenodd" fill="#DA2317" points="141.5,415.2 126.6,500.3 191.4,505.3 196.4,420.2 	"/>
	<path fill-rule="evenodd" clip-rule="evenodd" fill="#DA2317" d="M241.3,425.2v85.1l34.9,5v25l329.1-5l54.8-5l-24.9-60l-294.2,5
		c0,0-50.1-1.9-60-55.8L241.3,425.2z"/>
	<path fill-rule="evenodd" clip-rule="evenodd" fill="#DA2317" d="M326,415.2c0,0,124.4,31.1,249,8.3c0,0-58.7-30.4-79.5-33.3
		c-20.8-2.9-84.9-3-94.7,0C391,393.2,326,415.2,326,415.2z"/>
	<rect x="281.1" y="585.3" fill-rule="evenodd" clip-rule="evenodd" fill="#D52703" width="398.9" height="10"/>
	
		<path fill-rule="evenodd" clip-rule="evenodd" fill="none" stroke="#2A0402" stroke-width="11" stroke-linecap="round" stroke-linejoin="round" stroke-miterlimit="10" d="
		M680,595.3c0-2.5-41.1-145.1-74.8-160.1c-33.7-15-104.7-48.8-129.6-45c0,0-33.6,6.2-64.8,0c0,0-78.5,15-104.7,25
		c-26.2,10-209.4,0-209.4,0l15-5c0,0,23.7-206.4,20-210.1c-3.7-3.8-79.8-16.2-84.8-15c-5,1.2-17.4,103.8-19.9,115.1
		c-2.5,11.3,1.6,37.4-5,70C17.9,390-18,484,66.8,495.3c84.8,11.2,204.4,20,204.4,20l5-30l5,105.1"/>
	<path fill-rule="evenodd" clip-rule="evenodd" fill="#FBE2D4" d="M470.6,351.5v38.8c0,0-37.4,5-59.8,0v-40L470.6,351.5z"/>
	
		<path fill-rule="evenodd" clip-rule="evenodd" fill="none" stroke="#2A0402" stroke-width="4" stroke-linecap="round" stroke-linejoin="round" stroke-miterlimit="10" d="
		M473,345.5l-2.4,42.7c0,0-37.4,5-59.8,0v-43L473,345.5z"/>
	<polygon fill-rule="evenodd" clip-rule="evenodd" fill="#2F0602" points="476,343.5 470.6,370.2 415.8,347.2 	"/>
	
		<path fill-rule="evenodd" clip-rule="evenodd" fill="#954B44" stroke="#0A090A" stroke-width="4" stroke-linecap="round" stroke-linejoin="round" stroke-miterlimit="10" d="
		M505.5,150.1c1.4,0.9,1,13.5,10,20c9,6.5,8.6,55.1,8.6,55.1s5.6-39.4,7-39.7c5.5-0.9,15.5-4,14.4-5.4c-1.5-1.7,5-31.7,3.4-32.8
		C547.2,146.3,504.1,149.2,505.5,150.1z"/>
	
		<path fill-rule="evenodd" clip-rule="evenodd" fill="#954B44" stroke="#0A090A" stroke-width="4" stroke-linecap="round" stroke-linejoin="round" stroke-miterlimit="10" d="
		M326,165.1l20,30v-35l24.9,10l-5-30c0,0,27.3,20.6,24.9,20s0-40,0-40l10-5c0,0,7.2,46,64.8,40c57.7-5.9,69.6-6,89.8,5
		c20.1,11,36.9,6.9,34.9,5c-2-1.9-13.9-5.3-15-10c-1-4.7,14-8,15-10c1-2-5.2-0.7-10-5c-4.8-4.3-6.5-7.2,5-10
		c3.2-0.8,4.4-0.9,4.4-0.8c0,0.2-7.7,1.7-9.4-4.2c-2.4-8.2,5-15,5-15l-10-10l15-10c0,0-22.8-6.9-44.9-15
		c-22.1-8.1-27.1,4.5-34.8-4.8c-7.7-9.3-50,9.8-50,9.8l-139.6,80L326,165.1z"/>
	
		<path fill-rule="evenodd" clip-rule="evenodd" fill="none" stroke="#0A090A" stroke-width="4" stroke-linecap="round" stroke-linejoin="round" stroke-miterlimit="10" d="
		M580.3,160.1c-2.1,1.2-10-30.2-59.8-25c-49.9,5.2-96.1,12.1-109.7-30"/>
	
		<path fill-rule="evenodd" clip-rule="evenodd" fill="none" stroke="#0A090A" stroke-width="4" stroke-linecap="round" stroke-linejoin="round" stroke-miterlimit="10" d="
		M580.3,140.1c-2.1,1.1-10-30.2-59.8-25c-49.9,5.2-96.1,12.1-109.7-30"/>
	
		<path fill-rule="evenodd" clip-rule="evenodd" fill="none" stroke="#0A090A" stroke-width="4" stroke-linecap="round" stroke-linejoin="round" stroke-miterlimit="10" d="
		M580.3,115.1c-2.1,1.1-10-20.2-59.8-15c-49.9,5.2-96.1,2.1-109.7-40"/>
	
		<path fill-rule="evenodd" clip-rule="evenodd" fill="none" stroke="#0A090A" stroke-width="4" stroke-linecap="round" stroke-linejoin="round" stroke-miterlimit="10" d="
		M580.3,100.1c-2.1,1.2-10-20.2-59.8-15c-49.9,5.2-96.1,2.1-109.7-40"/>
	<g>
		
			<path fill-rule="evenodd" clip-rule="evenodd" fill="#DA0000" stroke="#000000" stroke-width="4" stroke-linecap="round" stroke-linejoin="round" stroke-miterlimit="10" d="
			M480.6,50c0,0-101.1-25.7-139.6-10S316,135.1,316,135.1S443.5,58.4,480.6,50z"/>
		<path fill-rule="evenodd" clip-rule="evenodd" d="M316,135.1c0,0-14.2,49.2,24.9,30s38.6-48.6,114.7-70c76-21.5,72.9-24.2,54.8-35
			c-18.1-10.9-24.8-19.1-34.9-15c-9.5,3.9-82.1,45.8-104.7,55C348.3,109.3,316,135.1,316,135.1z"/>
	</g>
	<g>
		<path fill-rule="evenodd" clip-rule="evenodd" d="M525.9,189.2c-2,0-3.6-0.4-3.6-0.9c0-0.5,1.6-0.9,3.6-0.9s3.6,0.4,3.6,0.9
			C529.6,188.8,528,189.2,525.9,189.2z M519.7,207.1c-0.2,6.7-1.3,13.2-3.6,19.5c-0.9,2.5-2.2,4.9-4.1,6.8c-2.1,2.1-4.8,3.2-7.7,4
			c-3.6,1-7.2,1.2-10.9,1.2c-5.6,0.1-11-0.7-16.5-1.8c-5.4-1.2-9.7-4-13.1-8.4c-4.4-5.6-7.2-11.9-8.8-18.8c-0.7-3.2-1.3-6.4-1.2-9.7
			c0-1.4,0.2-2.8,0.4-4.2c0.6-3.5,2.7-5.8,5.9-7.1c3.2-1.3,6.5-2.1,9.9-2.8c3.7-0.8,7.5-1.3,11.3-1.6c3-0.2,5.9-0.3,8-0.4
			c8,0.4,14.9,1,21.7,3c1.2,0.4,2.4,0.9,3.6,1.5c1.1,0.5,2,1.4,2.5,2.5c0.6,1.2,1.2,2.5,1.7,3.8c0.6,1.5,0.7,3.1,0.8,4.8
			C519.6,202,519.7,204.6,519.7,207.1z M422.3,209.2c-1.3,5.5-3.4,10.7-6.2,15.6c-1.5,2.7-3.3,5.2-5.5,7.3
			c-2.9,2.8-6.4,4.5-10.3,5.5c-7.8,2.1-15.7,2.6-23.7,1.4c-1.6-0.2-3.1-0.7-4.7-1.1c-3.2-0.8-5.6-2.7-7.4-5.5c-2-3.1-3.3-6.4-4.1-10
			c-1.1-4.6-1.7-9.4-2.2-14.1c-0.3-2.8-0.2-5.5,0.1-8.2c0.2-1.4,0.3-2.8,0.6-4.1c1.1-4.8,4-7.9,8.7-9.1c4.3-1.1,8.6-1.8,13.1-2.2
			c3.3-0.3,6.6-0.4,8.7-0.5c7.5,0.1,13.8,0.6,20,2c2.5,0.6,5.1,1.1,7.4,2.4c1.1,0.6,2.2,1.4,3.2,2.2c1.6,1.4,2.5,3.3,2.8,5.4
			C423.7,200.6,423.3,204.9,422.3,209.2z M352,189.2c-2,0-3.7-0.4-3.7-0.9c0-0.5,1.6-0.9,3.7-0.9c2,0,3.6,0.4,3.6,0.9
			C355.6,188.8,354,189.2,352,189.2z M533.7,183.2c0-0.6-0.3-1-0.9-1.1c-0.4-0.1-0.8-0.2-1.2-0.3c-5.9-0.9-11.8-1.9-17.8-2.3
			c-4.8-0.3-9.6-0.6-14.4-0.8c-9.2-0.4-18.4-0.2-27.6,1c-5.6,0.7-11.1,1.8-16.5,3.5c-2.7,0.9-5.4,1.9-8.1,2.8c-4.2,1.4-8.6,2-13,1.1
			c-2.6-0.5-5.3-1.3-7.8-2.1c-4.7-1.5-9.3-3-14.1-3.9c-9.4-1.8-18.8-2.6-27.7-2.5c-7.2,0-13.6,0.3-20.1,1
			c-5.3,0.6-10.5,1.4-15.8,2.1c-1.1,0.2-2.2,0.5-3.3,0.8c-0.6,0.1-1,0.6-1,1.2c-0.1,3.2-0.2,6.3-0.3,9.5c0,0.5,0.1,1,0.2,1.4
			c0.1,0.4,0.3,0.7,0.6,0.8c0.4,0.2,0.8,0.4,1.2,0.6c1.7,1.2,2.6,3.1,3.2,5c0.5,1.4,0.8,2.8,1.2,4.2c0.2,0.9,0.6,1.7,0.8,2.6
			c0.9,4.1,1.8,8.3,2.7,12.4c0.9,3.9,2.1,7.8,3.9,11.4c2.1,4,5,7.1,9.2,8.9c2.5,1.1,5.2,1.8,7.9,2.2c4.8,0.8,9.7,0.9,14.6,0.5
			c4.9-0.4,9.8-1.1,14.6-2.6c3.5-1.1,6.9-2.6,9.7-5.1c4.3-3.7,7.8-8.2,10.5-13.3c2.7-5.1,4.5-10.5,6.2-16c0.5-1.6,0.9-3.2,1.5-4.7
			c0.8-2.3,2.4-3.7,4.8-4.1c0.8-0.1,1.5-0.2,2.3-0.1c1.8,0.1,3.5,0.5,4.7,2c0.5,0.7,1,1.4,1.3,2.2c0.7,1.5,1.3,3.1,1.8,4.6
			c2.1,6.8,4.9,13.3,8.4,19.4c2.9,5.1,6.8,9.2,11.9,12.1c3.6,2,7.5,3.3,11.6,4.1c6.1,1.2,12.2,1.5,18.4,1.2c3.7-0.2,7.4-0.7,11-1.7
			c3.7-1.1,6.9-2.9,9.3-6.1c1.6-2,2.7-4.3,3.7-6.6c2-5,3.3-10.2,4.5-15.4c0.6-2.6,1.2-5.1,1.8-7.7c0.3-1.3,0.7-2.6,1.1-4
			c0.3-1.2,0.6-2.5,1.4-3.6c0.8-1.1,1.6-2.1,2.9-2.6c0.6-0.2,0.8-0.6,1-1.1c0.1-0.4,0.2-0.9,0.2-1.3c0-1.9,0-3.8,0-5.7
			C533.9,185.9,533.8,184.6,533.7,183.2z"/>
	</g>
</g>
</svg>
