<?xml version="1.0" encoding="utf-8"?>
<!-- Generator: Adobe Illustrator 18.0.0, SVG Export Plug-In . SVG Version: 6.00 Build 0)  -->
<!DOCTYPE svg PUBLIC "-//W3C//DTD SVG 1.1//EN" "http://www.w3.org/Graphics/SVG/1.1/DTD/svg11.dtd">
<svg version="1.1" id="Capa_1" xmlns="http://www.w3.org/2000/svg" xmlns:xlink="http://www.w3.org/1999/xlink" x="0px" y="0px"
	 viewBox="0 0 1680.2 279.9" enable-background="new 0 0 1680.2 279.9" xml:space="preserve">
<g>
	<path d="M20.8,27.9h59.7l21.5,113.8l31.4-113.8h59.4l31.5,113.6l21.5-113.6h59.3l-44.8,203.3h-61.6l-35.7-128l-35.5,128H66
		L20.8,27.9z"/>
	<path d="M436.5,197.6h-71.3l-9.9,33.6h-64.1l76.4-203.3H436l76.4,203.3h-65.8L436.5,197.6z M423.4,153.7L401,80.6l-22.2,73.1H423.4
		z"/>
	<path d="M518.2,27.9H581v153.2h98v50.1H518.2V27.9z"/>
	<path d="M693.4,27.9h62.8v153.2h98v50.1H693.4V27.9z"/>
	<path d="M826.2,27.9h69.8l41,68.6l41-68.6h69.4l-79,118.1v85.1h-62.9v-85.1L826.2,27.9z"/>
	<path d="M1035.4,269.3v-25.8c11.1,3.6,20.9,5.4,29.4,5.4c11.1,0,18.8-3.2,23.2-9.5c4.4-6.3,6.6-17.4,6.6-33.2V26h29.1v179.3
		c0,44.6-21.1,67-63.4,67C1053.9,272.2,1045.6,271.3,1035.4,269.3z"/>
	<path d="M1258.4,236.3c-28.5,0-51.4-9.9-68.7-29.6c-17.3-19.7-26-45.8-26-78.3c0-32.6,8.7-58.7,26.1-78.3
		c17.4-19.5,40.7-29.3,69.8-29.3c29,0,52.3,9.8,69.7,29.3c17.5,19.5,26.2,45.5,26.2,78.1c0,33.2-8.7,59.5-26.2,79
		C1311.9,226.6,1288.3,236.3,1258.4,236.3z M1258.8,214.6c21,0,37.2-7.6,48.7-22.7c11.5-15.1,17.2-36.4,17.2-64
		c0-26.7-5.8-47.6-17.3-62.7c-11.5-15.1-27.4-22.6-47.8-22.6c-20.4,0-36.4,7.6-47.8,22.7c-11.5,15.1-17.2,36.1-17.2,63
		c0,26.8,5.7,47.9,17.1,63.2C1223,206.9,1238.8,214.6,1258.8,214.6z"/>
	<path d="M1396.4,231.2V26h53.2c20.5,0,36.3,3.9,47.2,11.6s16.4,19,16.4,33.6c0,24.9-14.1,42.6-42.2,53.1
		c33.6,10.3,50.3,28.8,50.3,55.6c0,16.6-5.5,29.3-16.6,38.1c-11.1,8.8-27.1,13.2-48,13.2H1396.4z M1425.2,116.1h9.3
		c15.5,0,27.6-3.3,36.1-10c8.5-6.7,12.8-16,12.8-28.1c0-20.2-15.6-30.2-46.9-30.2h-11.4V116.1z M1425.2,209.4h6
		c21.4,0,35.2-1.3,41.5-4c12-5.1,18-14.5,18-28.3c0-12.2-5.5-22.3-16.4-30.4c-10.9-8.1-24.5-12.1-40.9-12.1h-8.2V209.4z"/>
	<path d="M1599.9,236.3c-13.8,0-31.4-3-52.8-9v-28.8c23.1,10.7,42.1,16.1,57,16.1c11.5,0,20.7-3,27.7-9c7-6,10.5-13.9,10.5-23.7
		c0-8-2.3-14.9-6.9-20.5c-4.6-5.6-13-11.9-25.3-18.9l-14.1-8.2c-17.5-10-29.8-19.4-37-28.2c-7.2-8.8-10.7-19.1-10.7-30.9
		c0-15.8,5.7-28.8,17.2-39c11.5-10.2,26.1-15.3,43.8-15.3c15.8,0,32.5,2.6,50.1,7.9v26.6c-21.6-8.5-37.8-12.8-48.4-12.8
		c-10.1,0-18.4,2.7-25,8c-6.6,5.4-9.8,12.1-9.8,20.2c0,6.8,2.4,12.9,7.2,18.2c4.8,5.3,13.6,11.6,26.3,18.9l14.7,8.3
		c17.7,10.1,30.1,19.6,37.2,28.6c7,9,10.5,19.7,10.5,32.3c0,17.8-6.6,32.2-19.8,43C1639.1,230.9,1621.6,236.3,1599.9,236.3z"/>
</g>
</svg>
